<svg xmlns="http://www.w3.org/2000/svg" xmlns:xlink="http://www.w3.org/1999/xlink" width="1000" zoomAndPan="magnify" viewBox="0 0 750 179.999997" height="240" preserveAspectRatio="xMidYMid meet" version="1.0"><defs><g/></defs><g fill="#000000" fill-opacity="1"><g transform="translate(42.843754, 173.755261)"><g><path d="M 9.84375 -53.515625 C 9.84375 -62.160156 11.238281 -69.484375 14.03125 -75.484375 C 16.832031 -81.484375 21.515625 -85.921875 28.078125 -88.796875 C 15.921875 -93.921875 9.84375 -105.441406 9.84375 -123.359375 L 9.84375 -126.484375 C 9.84375 -140.078125 13.082031 -150.394531 19.5625 -157.4375 C 26.039062 -164.476562 35.921875 -168 49.203125 -168 L 79.4375 -168 L 79.4375 -144 L 49.6875 -144 C 45.519531 -144 42.234375 -142.796875 39.828125 -140.390625 C 37.429688 -137.992188 36.234375 -133.757812 36.234375 -127.6875 L 36.234375 -117.359375 C 36.234375 -110.640625 37.632812 -106 40.4375 -103.4375 C 43.238281 -100.875 47.117188 -99.59375 52.078125 -99.59375 L 63.59375 -99.59375 L 63.59375 -118.3125 L 90 -118.3125 L 90 -99.59375 L 96.953125 -99.59375 L 96.953125 -75.59375 L 90 -75.59375 L 90 -20.40625 C 90 -16.238281 90.15625 -12.59375 90.46875 -9.46875 C 90.789062 -6.351562 91.59375 -3.195312 92.875 0 L 66 0 C 65.363281 -1.757812 64.882812 -3.476562 64.5625 -5.15625 C 64.238281 -6.84375 63.914062 -9.523438 63.59375 -13.203125 C 58.957031 -3.117188 50.800781 1.921875 39.125 1.921875 C 29.363281 1.921875 22.039062 -1.359375 17.15625 -7.921875 C 12.28125 -14.484375 9.84375 -24.003906 9.84375 -36.484375 Z M 36.234375 -38.640625 C 36.234375 -32.554688 37.472656 -28.273438 39.953125 -25.796875 C 42.441406 -23.316406 45.765625 -22.078125 49.921875 -22.078125 C 53.921875 -22.078125 57.117188 -23.195312 59.515625 -25.4375 C 61.921875 -27.675781 63.28125 -31.4375 63.59375 -36.71875 L 63.59375 -75.59375 L 53.515625 -75.59375 C 47.441406 -75.59375 43.039062 -73.992188 40.3125 -70.796875 C 37.59375 -67.597656 36.234375 -62.078125 36.234375 -54.234375 Z M 36.234375 -38.640625 "/></g></g></g><g fill="#000000" fill-opacity="1"><g transform="translate(142.200472, 173.755261)"><g/></g></g><g fill="#000000" fill-opacity="1"><g transform="translate(179.399239, 173.755261)"><g><path d="M 86.15625 -62.640625 L 86.15625 -40.3125 C 86.15625 -26.71875 82.832031 -16.28125 76.1875 -9 C 69.550781 -1.71875 59.753906 1.921875 46.796875 1.921875 C 33.835938 1.921875 24.035156 -1.71875 17.390625 -9 C 10.753906 -16.28125 7.4375 -26.71875 7.4375 -40.3125 L 7.4375 -127.6875 C 7.4375 -141.28125 10.753906 -151.71875 17.390625 -159 C 24.035156 -166.28125 33.835938 -169.921875 46.796875 -169.921875 C 59.753906 -169.921875 69.550781 -166.28125 76.1875 -159 C 82.832031 -151.71875 86.15625 -141.28125 86.15625 -127.6875 L 86.15625 -111.359375 L 61.203125 -111.359375 L 61.203125 -129.359375 C 61.203125 -135.441406 59.960938 -139.722656 57.484375 -142.203125 C 55.003906 -144.679688 51.679688 -145.921875 47.515625 -145.921875 C 43.359375 -145.921875 40.039062 -144.679688 37.5625 -142.203125 C 35.082031 -139.722656 33.84375 -135.441406 33.84375 -129.359375 L 33.84375 -38.640625 C 33.84375 -32.554688 35.082031 -28.3125 37.5625 -25.90625 C 40.039062 -23.507812 43.359375 -22.3125 47.515625 -22.3125 C 51.679688 -22.3125 55.003906 -23.507812 57.484375 -25.90625 C 59.960938 -28.3125 61.203125 -32.554688 61.203125 -38.640625 L 61.203125 -62.640625 Z M 86.15625 -62.640625 "/></g></g></g><g fill="#000000" fill-opacity="1"><g transform="translate(272.036215, 173.755261)"><g><path d="M 34.796875 -168 L 34.796875 -38.40625 C 34.796875 -32.320312 36.035156 -28.078125 38.515625 -25.671875 C 40.992188 -23.273438 44.316406 -22.078125 48.484375 -22.078125 C 52.640625 -22.078125 55.957031 -23.273438 58.4375 -25.671875 C 60.914062 -28.078125 62.15625 -32.320312 62.15625 -38.40625 L 62.15625 -168 L 87.125 -168 L 87.125 -40.078125 C 87.125 -26.484375 83.800781 -16.046875 77.15625 -8.765625 C 70.519531 -1.484375 60.722656 2.15625 47.765625 2.15625 C 34.796875 2.15625 24.992188 -1.484375 18.359375 -8.765625 C 11.722656 -16.046875 8.40625 -26.484375 8.40625 -40.078125 L 8.40625 -168 Z M 34.796875 -168 "/></g></g></g><g fill="#000000" fill-opacity="1"><g transform="translate(367.55304, 173.755261)"><g><path d="M 64.796875 0 C 64.472656 -1.125 64.148438 -2.164062 63.828125 -3.125 C 63.515625 -4.082031 63.238281 -5.28125 63 -6.71875 C 62.757812 -8.15625 62.597656 -9.992188 62.515625 -12.234375 C 62.441406 -14.472656 62.40625 -17.273438 62.40625 -20.640625 L 62.40625 -47.046875 C 62.40625 -54.878906 61.039062 -60.394531 58.3125 -63.59375 C 55.59375 -66.800781 51.195312 -68.40625 45.125 -68.40625 L 36 -68.40625 L 36 0 L 9.59375 0 L 9.59375 -168 L 49.4375 -168 C 63.195312 -168 73.15625 -164.796875 79.3125 -158.390625 C 85.476562 -151.992188 88.5625 -142.316406 88.5625 -129.359375 L 88.5625 -116.15625 C 88.5625 -98.875 82.800781 -87.515625 71.28125 -82.078125 C 78 -79.359375 82.597656 -74.914062 85.078125 -68.75 C 87.554688 -62.59375 88.796875 -55.113281 88.796875 -46.3125 L 88.796875 -20.40625 C 88.796875 -16.238281 88.957031 -12.59375 89.28125 -9.46875 C 89.601562 -6.351562 90.40625 -3.195312 91.6875 0 Z M 36 -144 L 36 -92.40625 L 46.3125 -92.40625 C 51.28125 -92.40625 55.160156 -93.679688 57.953125 -96.234375 C 60.753906 -98.796875 62.15625 -103.4375 62.15625 -110.15625 L 62.15625 -126.71875 C 62.15625 -132.800781 61.078125 -137.203125 58.921875 -139.921875 C 56.765625 -142.640625 53.363281 -144 48.71875 -144 Z M 36 -144 "/></g></g></g><g fill="#000000" fill-opacity="1"><g transform="translate(464.02984, 173.755261)"><g><path d="M 9.59375 -168 L 36 -168 L 36 0 L 9.59375 0 Z M 9.59375 -168 "/></g></g></g><g fill="#000000" fill-opacity="1"><g transform="translate(509.628272, 173.755261)"><g><path d="M 33.125 -121.6875 L 33.125 0 L 9.359375 0 L 9.359375 -168 L 42.484375 -168 L 69.59375 -67.4375 L 69.59375 -168 L 93.125 -168 L 93.125 0 L 66 0 Z M 33.125 -121.6875 "/></g></g></g><g fill="#000000" fill-opacity="1"><g transform="translate(612.104936, 173.755261)"><g><path d="M 33.84375 -38.640625 C 33.84375 -32.554688 35.082031 -28.273438 37.5625 -25.796875 C 40.039062 -23.316406 43.359375 -22.078125 47.515625 -22.078125 C 51.679688 -22.078125 55.003906 -23.316406 57.484375 -25.796875 C 59.960938 -28.273438 61.203125 -32.554688 61.203125 -38.640625 L 61.203125 -129.359375 C 61.203125 -135.441406 59.960938 -139.722656 57.484375 -142.203125 C 55.003906 -144.679688 51.679688 -145.921875 47.515625 -145.921875 C 43.359375 -145.921875 40.039062 -144.679688 37.5625 -142.203125 C 35.082031 -139.722656 33.84375 -135.441406 33.84375 -129.359375 Z M 7.4375 -127.6875 C 7.4375 -141.28125 10.875 -151.71875 17.75 -159 C 24.632812 -166.28125 34.554688 -169.921875 47.515625 -169.921875 C 60.472656 -169.921875 70.390625 -166.28125 77.265625 -159 C 84.148438 -151.71875 87.59375 -141.28125 87.59375 -127.6875 L 87.59375 -40.3125 C 87.59375 -26.71875 84.148438 -16.28125 77.265625 -9 C 70.390625 -1.71875 60.472656 1.921875 47.515625 1.921875 C 34.554688 1.921875 24.632812 -1.71875 17.75 -9 C 10.875 -16.28125 7.4375 -26.71875 7.4375 -40.3125 Z M 7.4375 -127.6875 "/></g></g></g></svg>